<?xml version="1.0" encoding="utf-8"?>
<!-- Generator: Adobe Illustrator 22.0.1, SVG Export Plug-In . SVG Version: 6.00 Build 0)  -->
<svg version="1.1" id="Layer_1" xmlns="http://www.w3.org/2000/svg" xmlns:xlink="http://www.w3.org/1999/xlink" x="0px" y="0px"
	 viewBox="0 0 50 50" style="enable-background:new 0 0 50 50;" xml:space="preserve">
<style type="text/css">
	.st0{fill:#F16A24;}
	.st1{fill:#F4A318;}
</style>
<path class="st0" d="M34.9,15.6c1.7,2.5,2.2,7.1,0.6,10.4c-0.3,0.6-0.6,1.2-1.1,1.9c-0.2,0.4-0.5,0.8-0.8,1.2
	c-0.1,0.2-0.3,0.4-0.4,0.6c0,0.1-0.2,0.3-0.5,1.2c-0.2,0.5-0.4,1.2-0.7,2c-0.3,0.7-0.5,1.4-0.6,1.9c-0.2,0.5-0.3,0.8-0.3,0.8L31,36
	H19.2l-0.1-0.4c0,0-0.1-0.3-0.3-0.8c-0.2-0.5-0.4-1.2-0.7-1.9c-0.3-0.8-0.6-1.5-0.8-2c-0.3-0.9-0.5-1.1-0.5-1.2
	c-0.1-0.2-0.4-0.5-0.6-0.8l0,0c-0.2-0.3-0.5-0.6-0.7-1c-0.3-0.4-0.6-0.9-0.8-1.3c-0.3-0.5-0.5-1.1-0.7-1.6c-0.1-0.3-0.2-0.7-0.3-1
	c-0.1-0.3-0.1-0.6-0.2-0.9c0-0.3-0.1-0.5-0.1-0.8c0-0.2,0-0.5,0-0.7c0-0.8,0.1-1.6,0.2-2.3c0.1-0.4,0.2-0.7,0.3-1.1
	c0.1-0.3,0.3-0.8,0.4-1.1c0.4-0.9,0.9-1.6,1.4-2.4c-0.2,1.8-0.8,3.9,0,5.6c0.4,0.9,1.2,1.8,2.2,1.8c0.8,0,1.7-0.6,1.8-1.4
	c0.1-0.8-0.4-1.8-0.7-2.5c-0.4-1.2-0.8-2.3-0.6-3.6c0.1-1,0.4-1.9,0.8-2.7c0.4-1,1-2,1.8-2.8c2-2,5.6-3.8,8.2-3.4
	c-1.9,0.2-2,2.9-1.4,4c0.7,1.3,2.3,1.6,3.4,2.3C32.6,12.9,34,14.3,34.9,15.6z"/>
<polygon class="st0" points="30,36 20.1,37.4 20.1,36 30,35.4 "/>
<polygon class="st0" points="30,38.6 20.1,39.9 20.1,38.6 30,37.3 "/>
<polygon class="st0" points="30,41.1 20.1,42.4 20.1,41.1 30,39.8 "/>
<polygon class="st0" points="27.8,44.3 22.3,44.3 22.3,43.2 27.8,42.5 "/>
<path class="st1" d="M23.2,16.5c4.1,0,7.3,3.9,7.3,8.6c0,3.8-2.6,6.9-5.9,6.9c-2.6,0-4.7-2.5-4.7-5.5c0-2.4,2-3.6,3.3-4.2
	C27.5,20.5,23.2,16.5,23.2,16.5z"/>
</svg>
